PathFileType	4	(X/Y/Z)	./resultDataOpenSim/trcMotMarkerGrf/sub06/qtm-12-05.trc
DataRate	CameraRate	NumFrames	NumMarkers	Units	OrigDataRate	OrigDataStartFrame	OrigNumFrames
250.000000	250.000000	12	24	m	250.000000	324	517
Frame#	Time	L.Toe.Tip			R.Toe.Tip			L.Ankle.Lat			R.Ankle.Lat			L.Ankle.Med			R.Ankle.Med			L.Heel			R.Heel			L.Knee.Lat			R.Knee.Lat			L.Knee.Med			R.Knee.Med			L.Thigh.Upper			R.Thigh.Upper			L.ASIS			R.ASIS			V.Sacral			L.Acromium			R.Acromium			C7			L.Elbow			R.Elbow			L.Wrist.Lat			R.Wrist.Lat
		X1	Y1	Z1	X2	Y2	Z2	X3	Y3	Z3	X4	Y4	Z4	X5	Y5	Z5	X6	Y6	Z6	X7	Y7	Z7	X8	Y8	Z8	X9	Y9	Z9	X10	Y10	Z10	X11	Y11	Z11	X12	Y12	Z12	X13	Y13	Z13	X14	Y14	Z14	X15	Y15	Z15	X16	Y16	Z16	X17	Y17	Z17	X18	Y18	Z18	X19	Y19	Z19	X20	Y20	Z20	X21	Y21	Z21	X22	Y22	Z22	X23	Y23	Z23	X24	Y24	Z24

324	1.292	0.35443438	0.098277205	-0.07160611	0.89295539	0.034848292	0.058431091	0.36223588	0.22752442	-0.10597687	0.75797029	0.060183477	0.089615337	0.38824708	0.23391146	-0.025213652	0.77184341	0.080890471	0.0019161585	0.32208683	0.28750611	-0.054426064	0.69916855	0.039770347	0.035325705	0.70049941	0.38597652	-0.161606	0.83889456	0.44003348	0.11710925	0.71265177	0.37673259	-0.039518715	0.79185391	0.42998842	-0.0031196159	0.64842566	0.77820356	-0.14973032	0.7278828	0.79973915	0.18461844	0.73305768	0.83252093	-0.12825951	0.79543186	0.8527182	0.10997421	0.58024866	0.91446427	0.035881484	0.696126	1.3281647	-0.16368802	0.7257275	1.2990709	0.19832338	0.63251316	1.3568984	0.024284494	0.6647808	1.0030091	-0.23360912	0.62776667	0.99860193	0.27030367	0.87440759	0.86807075	-0.21643191	0.7505018	0.79883229	0.33469539
325	1.296	0.36930749	0.10026223	-0.071669189	0.89293314	0.034841728	0.058489772	0.37600856	0.22956372	-0.1060483	0.75793822	0.060227601	0.089711909	0.40196488	0.23617673	-0.025371352	0.77185737	0.081080177	0.0020422003	0.33531102	0.28926921	-0.054560236	0.69916868	0.03996244	0.035340826	0.7135072	0.3884572	-0.1620281	0.8402942	0.44005943	0.11738851	0.72581009	0.37913125	-0.039783775	0.79323641	0.43054896	-0.0027814306	0.65525077	0.7803396	-0.14950924	0.73256681	0.80061511	0.18491763	0.73942098	0.83459962	-0.1282339	0.80116101	0.85410724	0.11081871	0.5863287	0.91622148	0.035828891	0.70168738	1.3301082	-0.16356057	0.73177882	1.3009853	0.19839249	0.63850474	1.3586191	0.024512412	0.66920489	1.0052299	-0.23307937	0.63645711	0.99941642	0.27080876	0.87636786	0.8668095	-0.21734765	0.76382398	0.80171225	0.33359907
326	1.3	0.3843025	0.10200674	-0.071670837	0.89292245	0.03483764	0.058540981	0.38984226	0.2313677	-0.10612526	0.75792834	0.060280167	0.089809612	0.41571641	0.23820828	-0.025529263	0.77188341	0.0812894	0.0021871165	0.34859732	0.2907405	-0.054639401	0.69918811	0.040158651	0.03535402	0.72645633	0.39105667	-0.16240686	0.84155386	0.44014748	0.11768548	0.73897869	0.38161974	-0.040024646	0.79440048	0.43115949	-0.002454282	0.66212286	0.78243723	-0.14919305	0.73714375	0.80145804	0.1851347	0.74607512	0.8367646	-0.1279671	0.80684428	0.85551061	0.11171222	0.592461	0.91789952	0.036106121	0.70725553	1.3320437	-0.16342334	0.73782799	1.3029155	0.19845607	0.64448439	1.3603327	0.024726889	0.67350462	1.0074749	-0.23253215	0.6451462	1.0002813	0.27131254	0.87822405	0.86566529	-0.21829617	0.77711207	0.8047633	0.33242877
327	1.304	0.39943844	0.10351356	-0.071686096	0.89292504	0.034834275	0.058586717	0.40373317	0.23293738	-0.10622231	0.75795588	0.060328307	0.089898528	0.42957675	0.23997389	-0.025712531	0.77193166	0.081512308	0.002342993	0.36192628	0.2919258	-0.054670595	0.69922159	0.040367285	0.035373576	0.7393517	0.3937616	-0.16274615	0.84275775	0.4402912	0.11811384	0.75212772	0.38420394	-0.040223868	0.7955354	0.4317737	-0.0022062627	0.6690515	0.78454001	-0.1488451	0.74184555	0.80235572	0.18543232	0.75296902	0.83899346	-0.12749084	0.81250095	0.85694507	0.11263549	0.59846962	0.9195369	0.036736176	0.71282482	1.3339583	-0.16326936	0.74387527	1.3048545	0.19850947	0.65045178	1.3620391	0.024932912	0.67771054	1.0097495	-0.23199359	0.65382565	1.001186	0.27180262	0.87997631	0.86463153	-0.21928969	0.79035223	0.80798074	0.33118158
328	1.308	0.41473403	0.10479119	-0.071801034	0.89293916	0.034830617	0.058626565	0.41766603	0.23428079	-0.10634996	0.75801394	0.060370645	0.089977835	0.44355743	0.24147344	-0.025915191	0.77200502	0.081743912	0.0024971961	0.37527652	0.29283336	-0.054670692	0.69926514	0.040592669	0.035400685	0.7521751	0.39657002	-0.16305333	0.84391819	0.44045759	0.1186219	0.7652346	0.38688705	-0.040367887	0.79683352	0.4323418	-0.0020846562	0.67604411	0.7866743	-0.14860735	0.74674225	0.80334135	0.18584975	0.75993372	0.84121653	-0.12692645	0.81813517	0.8584135	0.1135626	0.60436041	0.92115008	0.037508781	0.71840267	1.3358504	-0.16309364	0.74991539	1.3067967	0.19854783	0.6564045	1.363729	0.025135807	0.68184316	1.0120484	-0.23147377	0.66249605	1.0021267	0.2722685	0.8816428	0.86370242	-0.22032753	0.80353063	0.81135542	0.32985725
329	1.312	0.43019895	0.10584974	-0.072051681	0.89295917	0.034827189	0.058657888	0.43163206	0.23539388	-0.10649744	0.75805748	0.060427918	0.09006633	0.45764165	0.2427119	-0.026120025	0.77209986	0.081982538	0.002635272	0.38865491	0.2934602	-0.054673706	0.6993102	0.040836815	0.035440382	0.7649036	0.39948369	-0.16333605	0.84499596	0.44061136	0.11905471	0.77828261	0.38967357	-0.040454822	0.79829391	0.43285106	-0.0020549265	0.68308426	0.78879052	-0.14857908	0.75175676	0.80437913	0.18628796	0.76688259	0.84339219	-0.12636279	0.82374223	0.85990686	0.11447048	0.61030182	0.9227158	0.038118645	0.72400334	1.3377263	-0.16290063	0.75595021	1.3087358	0.19857139	0.66234337	1.3653886	0.025336533	0.6859257	1.0143637	-0.23097402	0.67118002	1.00311	0.27271223	0.88324236	0.86287648	-0.22140304	0.81662792	0.81486887	0.32845294
330	1.316	0.4458375	0.10669284	-0.072435232	0.89297874	0.034825516	0.058677778	0.44563988	0.23625505	-0.10663781	0.75803767	0.060532339	0.090187358	0.47182941	0.24367568	-0.026316165	0.77220846	0.082232644	0.0027500854	0.40208201	0.29380016	-0.05471994	0.69933678	0.041104497	0.035516143	0.77754446	0.40249232	-0.16358932	0.84598001	0.44075043	0.11934269	0.79124747	0.39257355	-0.040490517	0.79976896	0.4333225	-0.0020483546	0.69011509	0.79083074	-0.14876915	0.75687909	0.80544288	0.18667599	0.77381064	0.84550799	-0.12586404	0.8293266	0.86141741	0.11535132	0.61642213	0.92420904	0.038437932	0.72963285	1.339586	-0.16270257	0.76199318	1.3106658	0.19858823	0.66827547	1.3670074	0.025530724	0.68997733	1.0166898	-0.23049001	0.6798988	1.0041439	0.27314813	0.8847852	0.86215797	-0.22250894	0.82962737	0.81850307	0.32696378
331	1.32	0.46165654	0.10732211	-0.07293913	0.89299484	0.034826307	0.058686202	0.45970386	0.23684593	-0.10675412	0.75796986	0.060694321	0.090334049	0.4861357	0.24434693	-0.026498908	0.77232143	0.082505341	0.0028510995	0.41553003	0.29385735	-0.054785198	0.69932592	0.041402507	0.035651985	0.79012904	0.40556802	-0.16379453	0.84690161	0.44089564	0.1195484	0.8040894	0.39559691	-0.04048086	0.80112231	0.43376771	-0.0020098205	0.69706184	0.79279733	-0.14913707	0.76213143	0.80652434	0.18701196	0.78072642	0.84755503	-0.12546854	0.83489541	0.86293631	0.11620879	0.6227357	0.92561798	0.038585024	0.73528462	1.3414197	-0.1625086	0.76805608	1.312581	0.19860481	0.67421028	1.3685797	0.025711246	0.69400142	1.0190184	-0.23001709	0.68864571	1.0052268	0.27359252	0.88627442	0.8615423	-0.22364244	0.84253461	0.82226048	0.32539723
332	1.324	0.47767237	0.10774476	-0.073557208	0.89300862	0.034828966	0.058688368	0.47382691	0.23717628	-0.10685186	0.75792512	0.060894778	0.090471254	0.50054453	0.24474269	-0.026665308	0.77243088	0.082810778	0.0029560701	0.42893369	0.29362983	-0.054770448	0.69928634	0.041735004	0.035829032	0.80267309	0.40868291	-0.16393871	0.84780337	0.44105936	0.11976841	0.81674626	0.39873298	-0.040427422	0.80237491	0.43415653	-0.0019107138	0.70391186	0.79473069	-0.14960598	0.76739726	0.80759541	0.18730931	0.78758542	0.8495243	-0.1251563	0.84044264	0.86444489	0.11704517	0.62917233	0.92692727	0.038749182	0.74094715	1.343216	-0.16231905	0.77413607	1.3144745	0.19861728	0.68015143	1.3701048	0.025883525	0.69798295	1.0213375	-0.22955673	0.69736133	1.0063459	0.27404862	0.88771211	0.86100325	-0.22480814	0.85537576	0.82615963	0.32377665
333	1.328	0.49390303	0.10797217	-0.074288154	0.89302279	0.034833338	0.058692265	0.48800049	0.23728091	-0.1069468	0.75794307	0.061114408	0.090576313	0.51499435	0.24491474	-0.026814962	0.77253438	0.083148737	0.0030708982	0.44227517	0.29309445	-0.054619319	0.69925782	0.042099167	0.035982986	0.81516679	0.41182826	-0.16402751	0.84870167	0.44123998	0.12003741	0.82913933	0.40194105	-0.04033453	0.80356847	0.43446198	-0.001778743	0.71078757	0.79666981	-0.15004476	0.77248353	0.80861998	0.18757948	0.79424119	0.85140852	-0.12490063	0.84595999	0.86592429	0.11785984	0.63559619	0.92814045	0.038981555	0.74661453	1.3449663	-0.16213246	0.78022298	1.3163406	0.19861969	0.68607372	1.3716096	0.026095807	0.70190331	1.0236372	-0.22911626	0.70595633	1.0074828	0.27450076	0.88910591	0.86051244	-0.22601142	0.8681665	0.83020213	0.3221222
334	1.332	0.51035149	0.10801707	-0.075122221	0.89303885	0.03484017	0.058703141	0.50222735	0.23718624	-0.10705564	0.75800314	0.061351476	0.090653361	0.52943067	0.24490012	-0.026952352	0.77263516	0.083510103	0.0031871859	0.45561037	0.29222589	-0.054386566	0.69927625	0.042486608	0.036063864	0.82759829	0.41500945	-0.1640783	0.84958106	0.44143471	0.1203175	0.84126571	0.40518058	-0.040231165	0.80445296	0.43472456	-0.001706214	0.71787656	0.79863234	-0.15032026	0.77735366	0.80959018	0.18782913	0.80060639	0.8532255	-0.12464946	0.85145679	0.86736952	0.11865255	0.64184731	0.92933502	0.039093667	0.75228891	1.3466639	-0.16194937	0.78631378	1.3181747	0.19861465	0.69189912	1.3731783	0.026459399	0.7057595	1.0259114	-0.22870188	0.71439844	1.0086226	0.27493026	0.89046979	0.8600661	-0.22725116	0.88089153	0.83435779	0.3204379
335	1.336	0.52699826	0.10788869	-0.076032757	0.893057	0.03484906	0.058721417	0.51652995	0.23689542	-0.10719629	0.75807331	0.061609725	0.090714443	0.5438439	0.24469887	-0.027087495	0.77274096	0.083886126	0.0032979196	0.46901091	0.29101837	-0.054157693	0.69934465	0.042891779	0.036075692	0.83996488	0.41822768	-0.16410112	0.8504263	0.44164214	0.12056484	0.85327764	0.40845103	-0.040155949	0.80471046	0.43503073	-0.0017634288	0.72524273	0.80060814	-0.15041343	0.78216278	0.81052356	0.18805391	0.80672066	0.8550196	-0.12426867	0.85695368	0.86878468	0.11942184	0.64787348	0.93062544	0.038885258	0.75797218	1.3483023	-0.16177003	0.79241105	1.3199725	0.19860797	0.69753865	1.3749131	0.027086879	0.70956286	1.0281537	-0.22831569	0.72275498	1.0097613	0.27533586	0.89182026	0.85967671	-0.22851471	0.89351755	0.83858954	0.31871638
